<svg width="1400" height="1400" viewBox="0 0 1400 1400" fill="none" xmlns="http://www.w3.org/2000/svg">
<circle cx="700" cy="700" r="700" fill="white"/>
<path d="M538 784.667H814.173L911.171 346L1065.44 988.333L1130.05 784.667H1394.93L1390.5 815L1386.62 836.889H1168.1L1049.84 1192L911.171 499.905L873.108 836.889H538V784.667Z" fill="#F0D800"/>
<path d="M237 931.448V468H603.253C624.709 468 642.946 475.51 657.966 490.529C672.985 505.548 680.494 523.785 680.494 545.241V643.724C680.494 649.732 679.636 655.739 677.92 661.747C676.632 667.326 674.701 672.69 672.126 677.839C681.567 692 688.648 704.23 693.368 714.529C698.088 724.828 700.448 735.341 700.448 746.069V854.207C700.448 875.663 692.939 893.9 677.92 908.92C662.9 923.939 644.663 931.448 623.207 931.448H237ZM314.241 879.31H623.207C630.073 879.31 635.866 876.95 640.586 872.23C645.736 867.081 648.31 861.073 648.31 854.207V746.069C648.31 739.203 645.736 733.41 640.586 728.69C635.866 723.54 630.073 720.966 623.207 720.966H314.241C307.375 720.966 301.368 723.54 296.218 728.69C291.498 733.41 289.138 739.203 289.138 746.069V854.207C289.138 861.073 291.498 867.081 296.218 872.23C301.368 876.95 307.375 879.31 314.241 879.31ZM314.241 668.828H603.253C610.119 668.828 615.912 666.467 620.632 661.747C625.353 656.598 627.713 650.59 627.713 643.724V545.241C627.713 538.375 625.353 532.582 620.632 527.862C615.912 522.713 610.119 520.138 603.253 520.138H314.241C307.375 520.138 301.368 522.713 296.218 527.862C291.498 532.582 289.138 538.375 289.138 545.241V643.724C289.138 650.59 291.498 656.598 296.218 661.747C301.368 666.467 307.375 668.828 314.241 668.828Z" fill="black"/>
</svg>
