<svg width="128" height="128" viewBox="0 0 128 128" fill="none" xmlns="http://www.w3.org/2000/svg">
<circle cx="64" cy="64" r="64" fill="black"/>
<path d="M49.1875 71.7409H74.4376L83.306 31.6343L97.4107 90.3619L103.317 71.7409H127.535L127.13 74.5143L126.775 76.5155H106.797L95.9844 108.983L83.306 45.7056L79.826 76.5155H49.1875V71.7409Z" fill="#F0D800"/>
<path d="M21.668 85.161V42.7886H55.1539C57.1156 42.7886 58.7831 43.4752 60.1562 44.8483C61.5294 46.2215 62.216 47.889 62.216 49.8506V58.8548C62.216 59.4041 62.1375 59.9533 61.9806 60.5026C61.8629 61.0126 61.6864 61.5031 61.451 61.9739C62.3141 63.2686 62.9615 64.3867 63.393 65.3283C63.8246 66.27 64.0404 67.2312 64.0404 68.212V78.0989C64.0404 80.0606 63.3538 81.728 61.9806 83.1012C60.6074 84.4744 58.94 85.161 56.9783 85.161H21.668ZM28.73 80.3941H56.9783C57.6061 80.3941 58.1357 80.1783 58.5673 79.7467C59.0381 79.2759 59.2735 78.7267 59.2735 78.0989V68.212C59.2735 67.5843 59.0381 67.0546 58.5673 66.6231C58.1357 66.1523 57.6061 65.9168 56.9783 65.9168H28.73C28.1023 65.9168 27.553 66.1523 27.0822 66.6231C26.6507 67.0546 26.4349 67.5843 26.4349 68.212V78.0989C26.4349 78.7267 26.6507 79.2759 27.0822 79.7467C27.553 80.1783 28.1023 80.3941 28.73 80.3941ZM28.73 61.15H55.1539C55.7817 61.15 56.3113 60.9342 56.7429 60.5026C57.1745 60.0318 57.3903 59.4825 57.3903 58.8548V49.8506C57.3903 49.2229 57.1745 48.6932 56.7429 48.2617C56.3113 47.7909 55.7817 47.5555 55.1539 47.5555H28.73C28.1023 47.5555 27.553 47.7909 27.0822 48.2617C26.6507 48.6932 26.4349 49.2229 26.4349 49.8506V58.8548C26.4349 59.4825 26.6507 60.0318 27.0822 60.5026C27.553 60.9342 28.1023 61.15 28.73 61.15Z" fill="white"/>
</svg>
