<svg width="1200" height="245" viewBox="0 0 1200 245" fill="none" xmlns="http://www.w3.org/2000/svg">
<path d="M0 140.026V9.0926H103.474C109.535 9.0926 114.688 11.2142 118.931 15.4574C123.174 19.7006 125.296 24.8531 125.296 30.9148V58.7382C125.296 60.4355 125.054 62.1327 124.569 63.83C124.205 65.4061 123.659 66.9215 122.932 68.3763C125.599 72.3771 127.599 75.8323 128.933 78.7419C130.267 81.6515 130.933 84.6218 130.933 87.6526V118.204C130.933 124.265 128.812 129.418 124.569 133.661C120.325 137.904 115.173 140.026 109.111 140.026H0ZM21.8222 125.296H109.111C111.051 125.296 112.688 124.629 114.021 123.296C115.476 121.841 116.203 120.144 116.203 118.204V87.6526C116.203 85.7129 115.476 84.0762 114.021 82.7426C112.688 81.2878 111.051 80.5604 109.111 80.5604H21.8222C19.8825 80.5604 18.1852 81.2878 16.7304 82.7426C15.3968 84.0762 14.73 85.7129 14.73 87.6526V118.204C14.73 120.144 15.3968 121.841 16.7304 123.296C18.1852 124.629 19.8825 125.296 21.8222 125.296ZM21.8222 65.8304H103.474C105.414 65.8304 107.05 65.1636 108.384 63.83C109.717 62.3752 110.384 60.6779 110.384 58.7382V30.9148C110.384 28.9751 109.717 27.3384 108.384 26.0048C107.05 24.55 105.414 23.8226 103.474 23.8226H21.8222C19.8825 23.8226 18.1852 24.55 16.7304 26.0048C15.3968 27.3384 14.73 28.9751 14.73 30.9148V58.7382C14.73 60.6779 15.3968 62.3752 16.7304 63.83C18.1852 65.1636 19.8825 65.8304 21.8222 65.8304Z" fill="white"/>
<path d="M150.034 140.026V34.5519H164.945V140.026H150.034ZM150.034 14.9119V0H164.945V14.9119H150.034Z" fill="white"/>
<path d="M210.046 140.026C203.863 140.026 198.65 137.904 194.407 133.661C190.164 129.297 188.042 124.084 188.042 118.022V0H202.954V34.5519H248.599V49.4637H202.954V118.022C202.954 119.962 203.621 121.659 204.954 123.114C206.409 124.447 208.106 125.114 210.046 125.114H248.599V140.026H210.046Z" fill="white"/>
<path d="M284.27 140.026C278.208 140.026 272.995 137.904 268.631 133.661C264.388 129.297 262.266 124.084 262.266 118.022V56.556C262.266 50.4942 264.388 45.3418 268.631 41.0985C272.995 36.7341 278.208 34.5519 284.27 34.5519H369.377V49.4637H284.27C282.33 49.4637 280.633 50.1911 279.178 51.6459C277.845 52.9795 277.178 54.6162 277.178 56.556V118.022C277.178 119.962 277.845 121.659 279.178 123.114C280.633 124.447 282.33 125.114 284.27 125.114H369.74V140.026H284.27Z" fill="white"/>
<path d="M410.714 140.026C404.652 140.026 399.439 137.904 395.075 133.661C390.832 129.297 388.71 124.084 388.71 118.022V56.556C388.71 50.4942 390.832 45.3418 395.075 41.0985C399.439 36.7341 404.652 34.5519 410.714 34.5519H473.998C480.181 34.5519 485.395 36.7341 489.638 41.0985C494.002 45.3418 496.184 50.4942 496.184 56.556V118.022C496.184 124.084 494.002 129.297 489.638 133.661C485.395 137.904 480.181 140.026 473.998 140.026H410.714ZM410.714 125.114H473.998C475.938 125.114 477.575 124.447 478.908 123.114C480.363 121.659 481.091 119.962 481.091 118.022V56.556C481.091 54.6162 480.363 52.9795 478.908 51.6459C477.575 50.1911 475.938 49.4637 473.998 49.4637H410.714C408.774 49.4637 407.077 50.1911 405.622 51.6459C404.289 52.9795 403.622 54.6162 403.622 56.556V118.022C403.622 119.962 404.289 121.659 405.622 123.114C407.077 124.447 408.774 125.114 410.714 125.114Z" fill="white"/>
<path d="M514.803 140.026V34.5519H529.715V140.026H514.803ZM514.803 14.9119V0H529.715V14.9119H514.803Z" fill="white"/>
<path d="M550.329 140.026V34.5519H635.8C641.862 34.5519 647.014 36.7341 651.257 41.0985C655.622 45.3418 657.804 50.4942 657.804 56.556V140.026H642.892V56.556C642.892 54.6162 642.165 52.9795 640.71 51.6459C639.376 50.1911 637.74 49.4637 635.8 49.4637H572.515C570.576 49.4637 568.878 50.1911 567.424 51.6459C565.969 52.9795 565.241 54.6162 565.241 56.556V140.026H550.329Z" fill="white"/>
<path d="M827.555 140.026C821.493 140.026 816.28 137.904 811.916 133.661C807.672 129.297 805.551 124.084 805.551 118.022V34.5519H820.463V118.022C820.463 119.962 821.129 121.659 822.463 123.114C823.918 124.447 825.615 125.114 827.555 125.114H890.839C892.779 125.114 894.476 124.447 895.931 123.114C897.386 121.659 898.113 119.962 898.113 118.022V34.5519H913.025V118.022C913.025 124.084 910.843 129.297 906.479 133.661C902.235 137.904 897.022 140.026 890.839 140.026H827.555Z" fill="#F0D800"/>
<path d="M950.501 140.026C944.318 140.026 939.044 137.904 934.68 133.661C930.437 129.297 928.315 124.084 928.315 118.022V56.556C928.315 50.4942 930.437 45.3418 934.68 41.0985C939.044 36.7341 944.318 34.5519 950.501 34.5519H1020.88V0H1035.79V140.026H950.501ZM950.501 125.114H1013.79C1015.73 125.114 1017.36 124.447 1018.7 123.114C1020.15 121.659 1020.88 119.962 1020.88 118.022V56.556C1020.88 54.6162 1020.15 52.9795 1018.7 51.6459C1017.36 50.1911 1015.73 49.4637 1013.79 49.4637H950.501C948.561 49.4637 946.864 50.1911 945.409 51.6459C944.076 52.9795 943.409 54.6162 943.409 56.556V118.022C943.409 119.962 944.076 121.659 945.409 123.114C946.864 124.447 948.561 125.114 950.501 125.114Z" fill="#F0D800"/>
<path d="M1054.88 140.026V34.5519H1069.79V140.026H1054.88ZM1054.88 14.9119V0H1069.79V14.9119H1054.88Z" fill="#F0D800"/>
<path d="M1114.53 140.026C1108.47 140.026 1103.26 137.904 1098.89 133.661C1094.65 129.297 1092.53 124.084 1092.53 118.022V56.556C1092.53 50.4942 1094.65 45.3418 1098.89 41.0985C1103.26 36.7341 1108.47 34.5519 1114.53 34.5519H1177.82C1184 34.5519 1189.21 36.7341 1193.46 41.0985C1197.82 45.3418 1200 50.4942 1200 56.556V118.022C1200 124.084 1197.82 129.297 1193.46 133.661C1189.21 137.904 1184 140.026 1177.82 140.026H1114.53ZM1114.53 125.114H1177.82C1179.76 125.114 1181.39 124.447 1182.73 123.114C1184.18 121.659 1184.91 119.962 1184.91 118.022V56.556C1184.91 54.6162 1184.18 52.9795 1182.73 51.6459C1181.39 50.1911 1179.76 49.4637 1177.82 49.4637H1114.53C1112.59 49.4637 1110.89 50.1911 1109.44 51.6459C1108.11 52.9795 1107.44 54.6162 1107.44 56.556V118.022C1107.44 119.962 1108.11 121.659 1109.44 123.114C1110.89 124.447 1112.59 125.114 1114.53 125.114Z" fill="#F0D800"/>
<path d="M0.578125 144.984H683.098L733.644 4.05225L797.009 185.829L805.905 144.984H1196.31V161.761H819.152L797.009 244.733L733.644 52.391L694.543 161.761H0.578125V144.984Z" fill="#F0D800"/>
</svg>
